<svg id="b1819fb9-a92c-461c-82ef-1de5f776ed24" data-name="Layer" xmlns="http://www.w3.org/2000/svg" viewBox="0 0 1219.18 456.03"><defs><style>.b8fd36d3-fa25-4c7c-ab32-d95ce97ed4d2{fill:#38245f;}.a4c9324a-8e05-4ed7-8666-5a3230f3354d{fill:#5e4495;}.b6dac876-5497-4010-8efd-bc77a7ffe700{fill:#dcd7ec;}</style></defs><g id="e1128b1d-7964-44ab-9d1f-82650838b840" data-name="Logo"><g id="a62eb67e-0450-49c4-a2ba-b081e9e9cd73" data-name="Circle"><path class="b8fd36d3-fa25-4c7c-ab32-d95ce97ed4d2" d="M229,0C354.94,0,457,102.08,457,228S354.94,456,229,456"/><path class="a4c9324a-8e05-4ed7-8666-5a3230f3354d" d="M229,0C103.08,0,1,102.08,1,228S103.08,456,229,456"/></g><g id="e84c2ee5-edc8-4139-8e85-a69530ec3ff9" data-name="Penguin"><path class="b6dac876-5497-4010-8efd-bc77a7ffe700" d="M329.4,228.66A104.43,104.43,0,0,0,267.88,99.57V74.33A17.35,17.35,0,0,0,250.53,57h-8.2a13.37,13.37,0,0,0,.19-2.12V12.44A12.44,12.44,0,0,0,230.08,0h-.94A12.44,12.44,0,0,0,216.7,12.44V54.86a12.29,12.29,0,0,0,.19,2.12h-7.46a17.35,17.35,0,0,0-17.35,17.35V99.57a104.43,104.43,0,0,0-61.52,129.09C113.31,252.6,103,282.88,103,315.84,103,393.26,159.83,456,230,456s127-62.77,127-140.19C357,282.88,346.65,252.6,329.4,228.66ZM230,413.53c-48.45,0-87.72-47.14-87.72-105.29,0-31.47,11.52-59.7,29.76-79a40.54,40.54,0,1,1,56.89-55.6,40.54,40.54,0,1,1,58.14,54.67c18.75,19.31,30.65,47.94,30.65,79.92C317.7,366.39,278.43,413.53,230,413.53Z"/><circle class="b6dac876-5497-4010-8efd-bc77a7ffe700" cx="205.84" cy="196.51" r="11.93"/><circle class="b6dac876-5497-4010-8efd-bc77a7ffe700" cx="253.51" cy="196.51" r="11.93" transform="translate(-25.05 355.52) rotate(-67.5)"/><path class="b6dac876-5497-4010-8efd-bc77a7ffe700" d="M247.28,215.53c-10.27-9.46-27.06-9.46-37.32,0l-5.25,4.84c-3.11,2.87-2.33,6.64,0,10.39L223.77,256A8.44,8.44,0,0,0,235,256l17.65-25.09c2.33-3.68,3.11-7.52,0-10.39Z"/></g></g><g id="f3279e57-daae-47a8-8c23-67e9042510d6" data-name="Orfeo"><path class="b8fd36d3-fa25-4c7c-ab32-d95ce97ed4d2" d="M526.72,304.76a89.2,89.2,0,0,1-33.8-33.15q-12.48-21.18-12.48-48,0-26.52,12.48-47.7a89.24,89.24,0,0,1,33.8-33.14,97.76,97.76,0,0,1,93.71,0A88.61,88.61,0,0,1,654,176q12.35,21.2,12.35,47.7,0,26.78-12.35,48a88.27,88.27,0,0,1-33.66,33.15,97.51,97.51,0,0,1-93.58,0Zm75.64-27.95a50.81,50.81,0,0,0,19.5-21.18q7-13.78,7-32t-7-31.84a50.09,50.09,0,0,0-19.5-20.93q-12.47-7.27-28.85-7.28t-29,7.28a49.85,49.85,0,0,0-19.62,20.93q-7,13.65-7,31.84t7,32a50.56,50.56,0,0,0,19.62,21.18q12.62,7.41,29,7.41T602.36,276.81Z"/><path class="b8fd36d3-fa25-4c7c-ab32-d95ce97ed4d2" d="M748.07,175.3a51,51,0,0,1,25.86-6.5V207h-9.62q-17.14,0-25.86,8.06t-8.71,28.08V314.9H693.35v-144h36.39v22.36A51.12,51.12,0,0,1,748.07,175.3Z"/><path class="b8fd36d3-fa25-4c7c-ab32-d95ce97ed4d2" d="M864.39,200.78H839.18V314.9H802.26V200.78H785.89v-29.9h16.37V163.6q0-26.52,15.08-39t45.49-11.7v30.68q-13.25-.26-18.45,4.41t-5.2,16.9v6h25.21Z"/><path class="b8fd36d3-fa25-4c7c-ab32-d95ce97ed4d2" d="M1020.88,253.81H915.6q1.3,15.58,10.92,24.43t23.66,8.84q20.27,0,28.85-17.42h39.26a65.65,65.65,0,0,1-23.92,34.19Q976.69,317.24,951,317.24q-20.81,0-37.31-9.23a64.92,64.92,0,0,1-25.73-26.13q-9.24-16.89-9.23-39,0-22.35,9.1-39.25a63.43,63.43,0,0,1,25.47-26q16.38-9.09,37.7-9.1,20.52,0,36.78,8.84A62.24,62.24,0,0,1,1013,202.47q9,16.25,9,37.3A85.17,85.17,0,0,1,1020.88,253.81Zm-36.65-24.44q-.26-14-10.14-22.49t-24.17-8.44q-13.53,0-22.75,8.18t-11.31,22.75Z"/><path class="b8fd36d3-fa25-4c7c-ab32-d95ce97ed4d2" d="M1075,308a66.37,66.37,0,0,1-26.12-26.13q-9.49-16.89-9.49-39t9.75-39a67.6,67.6,0,0,1,26.64-26.13,81.59,81.59,0,0,1,75.39,0,67.75,67.75,0,0,1,26.65,26.13q9.74,16.89,9.74,39t-10,39a69.25,69.25,0,0,1-27,26.13q-17,9.23-38.08,9.23Q1091.59,317.24,1075,308Zm56-27.3a34.88,34.88,0,0,0,13.91-14.43q5.19-9.6,5.2-23.39,0-20.53-10.79-31.59a35.47,35.47,0,0,0-26.38-11,34.65,34.65,0,0,0-26.13,11q-10.53,11.05-10.53,31.59t10.27,31.58q10.26,11.05,25.87,11A37.82,37.82,0,0,0,1131,280.71Z"/></g><g id="b3737a0b-a071-4717-9aea-f06dd2ce0cb7" data-name="Detail"><path d="M485.56,376.78a9.77,9.77,0,0,1-4.21-3.28,8.66,8.66,0,0,1-1.6-5.06h6.84a4.43,4.43,0,0,0,1.38,3.1,4.94,4.94,0,0,0,3.44,1.14,5.31,5.31,0,0,0,3.51-1.07,3.48,3.48,0,0,0,1.27-2.8,3.2,3.2,0,0,0-.86-2.32,6.11,6.11,0,0,0-2.16-1.44,34.74,34.74,0,0,0-3.58-1.16,39.17,39.17,0,0,1-5-1.8,8.85,8.85,0,0,1-3.33-2.69,7.69,7.69,0,0,1-1.39-4.8,8.62,8.62,0,0,1,1.42-4.92,8.92,8.92,0,0,1,4-3.21,14.3,14.3,0,0,1,5.83-1.12,12.66,12.66,0,0,1,8,2.39,8.91,8.91,0,0,1,3.4,6.68h-7a3.61,3.61,0,0,0-1.39-2.71,5.19,5.19,0,0,0-3.44-1.07,4.41,4.41,0,0,0-3,.95,3.49,3.49,0,0,0-1.12,2.78,2.85,2.85,0,0,0,.85,2.12,6.31,6.31,0,0,0,2.09,1.36,36.21,36.21,0,0,0,3.53,1.21,38.55,38.55,0,0,1,5.06,1.82,9.11,9.11,0,0,1,3.37,2.74,7.57,7.57,0,0,1,1.41,4.78,9,9,0,0,1-1.32,4.74,9.39,9.39,0,0,1-3.87,3.48,13.28,13.28,0,0,1-6.06,1.3A15.09,15.09,0,0,1,485.56,376.78Z"/><path d="M508.74,348.29a3.75,3.75,0,0,1,0-5.33,4.2,4.2,0,0,1,5.6,0,3.73,3.73,0,0,1,0,5.33,4.2,4.2,0,0,1-5.6,0Zm6,4.08V377.6h-6.38V352.37Z"/><path d="M525.07,376.89a9.68,9.68,0,0,1-3.89-3,7.6,7.6,0,0,1-1.57-4.23H526a3.51,3.51,0,0,0,1.43,2.41,5,5,0,0,0,3.12,1,4.83,4.83,0,0,0,2.85-.73,2.22,2.22,0,0,0,1-1.87,2,2,0,0,0-1.25-1.84,24,24,0,0,0-4-1.35,32.35,32.35,0,0,1-4.63-1.41,7.92,7.92,0,0,1-3.09-2.23,6,6,0,0,1-1.3-4.05,6.56,6.56,0,0,1,1.2-3.83,8.16,8.16,0,0,1,3.47-2.73,12.92,12.92,0,0,1,5.3-1,10.85,10.85,0,0,1,7.2,2.25,8.34,8.34,0,0,1,3,6.08h-6.1A3.32,3.32,0,0,0,533,357.9a5.62,5.62,0,0,0-5.64-.25,2,2,0,0,0-.94,1.78,2.08,2.08,0,0,0,1.28,1.93,19.51,19.51,0,0,0,4,1.34,34,34,0,0,1,4.51,1.42,7.85,7.85,0,0,1,3.07,2.25,6.17,6.17,0,0,1,1.35,4,6.71,6.71,0,0,1-1.21,3.92,8,8,0,0,1-3.46,2.71,14.48,14.48,0,0,1-10.82-.14Z"/><path d="M553.22,357.6v12.21a2.39,2.39,0,0,0,.61,1.84,3,3,0,0,0,2.08.57h3v5.38h-4q-8.07,0-8.06-7.83V357.6h-3v-5.23h3v-6.24h6.42v6.24h5.65v5.23Z"/><path d="M586.74,366.9H568.29a6.28,6.28,0,0,0,1.92,4.28,5.88,5.88,0,0,0,4.14,1.54,5.21,5.21,0,0,0,5.06-3.05h6.87a11.4,11.4,0,0,1-4.19,6,12.18,12.18,0,0,1-7.6,2.35,13.16,13.16,0,0,1-6.54-1.62,11.36,11.36,0,0,1-4.51-4.58,14,14,0,0,1-1.61-6.83,14.28,14.28,0,0,1,1.59-6.87,11.08,11.08,0,0,1,4.46-4.56,13.44,13.44,0,0,1,6.61-1.59,13.27,13.27,0,0,1,6.44,1.54,11,11,0,0,1,4.42,4.4,13.29,13.29,0,0,1,1.57,6.54A15.25,15.25,0,0,1,586.74,366.9Zm-6.42-4.29a5.08,5.08,0,0,0-1.78-3.94,6.31,6.31,0,0,0-4.23-1.48,5.79,5.79,0,0,0-4,1.44,6.25,6.25,0,0,0-2,4Z"/><path d="M630.39,354.85q2.85,2.85,2.85,7.95v14.8h-6.38V363.66a6.32,6.32,0,0,0-1.5-4.53,5.39,5.39,0,0,0-4.1-1.57,5.47,5.47,0,0,0-4.12,1.57,6.24,6.24,0,0,0-1.53,4.53V377.6h-6.37V363.66a6.28,6.28,0,0,0-1.51-4.53,5.37,5.37,0,0,0-4.09-1.57,5.53,5.53,0,0,0-4.17,1.57,6.24,6.24,0,0,0-1.53,4.53V377.6h-6.37V352.37h6.37v3.05a8.57,8.57,0,0,1,3.17-2.51,10,10,0,0,1,4.26-.91,11,11,0,0,1,5.28,1.25,8.8,8.8,0,0,1,3.6,3.58,9.13,9.13,0,0,1,3.57-3.51A10.21,10.21,0,0,1,622.9,352,10.1,10.1,0,0,1,630.39,354.85Z"/><path d="M639.18,358.11a11.14,11.14,0,0,1,4.15-4.56,11,11,0,0,1,5.85-1.59,10.27,10.27,0,0,1,4.94,1.14,10,10,0,0,1,3.4,2.86v-3.59h6.42V377.6h-6.42v-3.69a9.63,9.63,0,0,1-3.4,2.94,10.4,10.4,0,0,1-5,1.16,10.73,10.73,0,0,1-5.81-1.64,11.51,11.51,0,0,1-4.15-4.62,15,15,0,0,1-1.52-6.86A14.66,14.66,0,0,1,639.18,358.11ZM656.6,361a6.34,6.34,0,0,0-2.45-2.55,6.68,6.68,0,0,0-6.61,0A6.61,6.61,0,0,0,645.1,361a7.94,7.94,0,0,0-.93,3.94,8.22,8.22,0,0,0,.93,4,6.84,6.84,0,0,0,2.46,2.62,6.35,6.35,0,0,0,3.26.91,6.62,6.62,0,0,0,3.33-.89A6.34,6.34,0,0,0,656.6,369a9.09,9.09,0,0,0,0-8Z"/><path d="M680.9,358.11A11,11,0,0,1,691,352a10.63,10.63,0,0,1,4.69,1.07,9.42,9.42,0,0,1,3.55,2.84v-12h6.47v33.7h-6.47v-3.74a8.66,8.66,0,0,1-3.32,3,10.44,10.44,0,0,1-5,1.14,10.88,10.88,0,0,1-5.83-1.64,11.48,11.48,0,0,1-4.17-4.62,15,15,0,0,1-1.52-6.86A14.66,14.66,0,0,1,680.9,358.11ZM698.32,361a6.34,6.34,0,0,0-2.45-2.55,6.68,6.68,0,0,0-6.61,0,6.61,6.61,0,0,0-2.44,2.53,7.94,7.94,0,0,0-.93,3.94,8.22,8.22,0,0,0,.93,4,6.84,6.84,0,0,0,2.46,2.62,6.35,6.35,0,0,0,3.26.91,6.62,6.62,0,0,0,3.33-.89,6.34,6.34,0,0,0,2.45-2.55,9.09,9.09,0,0,0,0-8Z"/><path d="M735.17,366.9H716.72a6.28,6.28,0,0,0,1.92,4.28,5.88,5.88,0,0,0,4.14,1.54,5.2,5.2,0,0,0,5.06-3.05h6.88a11.51,11.51,0,0,1-4.19,6,12.23,12.23,0,0,1-7.61,2.35,13.16,13.16,0,0,1-6.54-1.62,11.36,11.36,0,0,1-4.51-4.58,14.1,14.1,0,0,1-1.61-6.83,14.28,14.28,0,0,1,1.59-6.87,11,11,0,0,1,4.47-4.56,14.36,14.36,0,0,1,13-.05,11,11,0,0,1,4.42,4.4,13.29,13.29,0,0,1,1.57,6.54A15.25,15.25,0,0,1,735.17,366.9Zm-6.42-4.29a5,5,0,0,0-1.78-3.94,6.31,6.31,0,0,0-4.23-1.48,5.79,5.79,0,0,0-4,1.44,6.25,6.25,0,0,0-2,4Z"/><path d="M773,355.37a7.53,7.53,0,0,0-3-3.05,9.17,9.17,0,0,0-4.47-1.05,9.78,9.78,0,0,0-5,1.28,8.83,8.83,0,0,0-3.41,3.64,12.86,12.86,0,0,0,0,11,8.88,8.88,0,0,0,3.48,3.65,10.3,10.3,0,0,0,5.2,1.27,9,9,0,0,0,6-1.93,9.2,9.2,0,0,0,3-5.4H763.86v-4.87h17.22v5.55a15.05,15.05,0,0,1-2.73,6.15,15.31,15.31,0,0,1-5.4,4.53,15.85,15.85,0,0,1-7.4,1.71,16.74,16.74,0,0,1-8.31-2.07,15,15,0,0,1-5.83-5.76,17.68,17.68,0,0,1,0-16.79,15,15,0,0,1,5.83-5.78,17.75,17.75,0,0,1,17.6.55,13.38,13.38,0,0,1,5.47,7.35Z"/><path d="M809.09,366.9H790.64a6.28,6.28,0,0,0,1.92,4.28,5.88,5.88,0,0,0,4.14,1.54,5.2,5.2,0,0,0,5.06-3.05h6.88a11.51,11.51,0,0,1-4.19,6,12.23,12.23,0,0,1-7.61,2.35,13.16,13.16,0,0,1-6.54-1.62,11.36,11.36,0,0,1-4.51-4.58,14.1,14.1,0,0,1-1.61-6.83,14.28,14.28,0,0,1,1.59-6.87,11,11,0,0,1,4.47-4.56,14.36,14.36,0,0,1,13-.05,11,11,0,0,1,4.42,4.4,13.29,13.29,0,0,1,1.57,6.54A15.25,15.25,0,0,1,809.09,366.9Zm-6.42-4.29a5,5,0,0,0-1.78-3.94,6.31,6.31,0,0,0-4.23-1.48,5.79,5.79,0,0,0-4,1.44,6.25,6.25,0,0,0-2,4Z"/><path d="M818,376.89a9.79,9.79,0,0,1-3.9-3,7.68,7.68,0,0,1-1.57-4.23H819a3.48,3.48,0,0,0,1.44,2.41,5,5,0,0,0,3.12,1,4.79,4.79,0,0,0,2.84-.73,2.2,2.2,0,0,0,1-1.87,2,2,0,0,0-1.25-1.84,24.15,24.15,0,0,0-4-1.35,32.57,32.57,0,0,1-4.62-1.41,8,8,0,0,1-3.1-2.23,6,6,0,0,1-1.3-4.05,6.57,6.57,0,0,1,1.21-3.83,8.13,8.13,0,0,1,3.46-2.73,12.94,12.94,0,0,1,5.31-1,10.84,10.84,0,0,1,7.19,2.25,8.34,8.34,0,0,1,3,6.08h-6.1a3.31,3.31,0,0,0-1.25-2.39,5.64,5.64,0,0,0-5.65-.25,2,2,0,0,0-.93,1.78,2.07,2.07,0,0,0,1.27,1.93,19.42,19.42,0,0,0,4,1.34,33.29,33.29,0,0,1,4.5,1.42,7.88,7.88,0,0,1,3.08,2.25,6.22,6.22,0,0,1,1.34,4,6.71,6.71,0,0,1-1.2,3.92,8,8,0,0,1-3.47,2.71,14.45,14.45,0,0,1-10.81-.14Z"/><path d="M846.16,357.6v12.21a2.39,2.39,0,0,0,.62,1.84,3,3,0,0,0,2.07.57h3v5.38h-4q-8.06,0-8.06-7.83V357.6h-3v-5.23h3v-6.24h6.42v6.24h5.65v5.23Z"/><path d="M856.84,348.29a3.75,3.75,0,0,1,0-5.33,4.21,4.21,0,0,1,5.61,0,3.75,3.75,0,0,1,0,5.33,4.21,4.21,0,0,1-5.61,0Zm5.95,4.08V377.6h-6.38V352.37Z"/><path d="M873.72,376.39a11.6,11.6,0,0,1-4.58-4.58,13.68,13.68,0,0,1-1.66-6.83,13.4,13.4,0,0,1,1.71-6.83,11.93,11.93,0,0,1,4.66-4.58,14.35,14.35,0,0,1,13.21,0,11.89,11.89,0,0,1,4.67,4.58,13.4,13.4,0,0,1,1.71,6.83,13.22,13.22,0,0,1-1.75,6.83,12.13,12.13,0,0,1-4.74,4.58,13.74,13.74,0,0,1-6.67,1.62A13.26,13.26,0,0,1,873.72,376.39Zm9.81-4.78a6.09,6.09,0,0,0,2.44-2.53,8.48,8.48,0,0,0,.91-4.1,7.58,7.58,0,0,0-1.89-5.53,6.22,6.22,0,0,0-4.62-1.94,6.08,6.08,0,0,0-4.58,1.94A7.69,7.69,0,0,0,874,365a7.84,7.84,0,0,0,1.79,5.54,5.93,5.93,0,0,0,4.54,1.93A6.62,6.62,0,0,0,883.53,371.61Zm2.17-26.12-10.48,4.78v-4.55l10.48-5.42Z"/><path d="M919.4,354.85q2.77,2.85,2.78,7.95v14.8H915.8V363.66a6.55,6.55,0,0,0-1.5-4.62,5.32,5.32,0,0,0-4.1-1.62A5.46,5.46,0,0,0,906,359a6.51,6.51,0,0,0-1.52,4.62V377.6h-6.38V352.37h6.38v3.14a8.79,8.79,0,0,1,3.25-2.57,10,10,0,0,1,4.35-.94A9.72,9.72,0,0,1,919.4,354.85Z"/><path d="M959,347.77a13.9,13.9,0,0,1,5.88,5.58,16.61,16.61,0,0,1,2.07,8.4,16.4,16.4,0,0,1-2.07,8.36,14,14,0,0,1-5.88,5.53,18.91,18.91,0,0,1-8.81,2H939.08V345.81h11.11A18.91,18.91,0,0,1,959,347.77Zm-1.3,21.68c1.83-1.83,2.74-4.39,2.74-7.7s-.91-5.9-2.74-7.77-4.4-2.8-7.74-2.8h-4.51v21H950Q955,372.18,957.7,369.45Z"/><path d="M976.38,376.39a11.6,11.6,0,0,1-4.58-4.58,13.68,13.68,0,0,1-1.66-6.83,13.4,13.4,0,0,1,1.71-6.83,11.86,11.86,0,0,1,4.66-4.58,14.35,14.35,0,0,1,13.21,0,11.89,11.89,0,0,1,4.67,4.58A13.4,13.4,0,0,1,996.1,365a13.22,13.22,0,0,1-1.75,6.83,12.13,12.13,0,0,1-4.74,4.58,13.74,13.74,0,0,1-6.67,1.62A13.26,13.26,0,0,1,976.38,376.39Zm9.81-4.78a6.09,6.09,0,0,0,2.44-2.53,8.48,8.48,0,0,0,.91-4.1,7.58,7.58,0,0,0-1.89-5.53,6.22,6.22,0,0,0-4.62-1.94,6.08,6.08,0,0,0-4.58,1.94A7.7,7.7,0,0,0,976.6,365a7.84,7.84,0,0,0,1.8,5.54,5.93,5.93,0,0,0,4.54,1.93A6.64,6.64,0,0,0,986.19,371.61Z"/><path d="M1000.74,358.13a11.48,11.48,0,0,1,4.42-4.56,12.86,12.86,0,0,1,6.47-1.61,12.46,12.46,0,0,1,7.77,2.34,11.49,11.49,0,0,1,4.12,6.58h-6.88a5,5,0,0,0-1.85-2.57,5.35,5.35,0,0,0-3.21-.93,5.25,5.25,0,0,0-4.32,2,10.6,10.6,0,0,0,0,11.2,5.25,5.25,0,0,0,4.32,2,4.84,4.84,0,0,0,5.06-3.46h6.88a11.6,11.6,0,0,1-4.15,6.51,12.19,12.19,0,0,1-7.74,2.42,12.76,12.76,0,0,1-6.47-1.62,11.52,11.52,0,0,1-4.42-4.55,15.57,15.57,0,0,1,0-13.71Z"/><path d="M1052,352.37V377.6h-6.42v-3.19a8.38,8.38,0,0,1-3.22,2.57,9.84,9.84,0,0,1-4.3.94,10.66,10.66,0,0,1-5.24-1.26,8.81,8.81,0,0,1-3.57-3.68,12.16,12.16,0,0,1-1.3-5.81v-14.8h6.38v13.89a6.55,6.55,0,0,0,1.5,4.62,6,6,0,0,0,8.24,0,6.56,6.56,0,0,0,1.51-4.62V352.37Z"/><path d="M1097.14,354.85q2.85,2.85,2.85,7.95v14.8h-6.38V363.66a6.32,6.32,0,0,0-1.5-4.53,5.39,5.39,0,0,0-4.1-1.57,5.46,5.46,0,0,0-4.12,1.57,6.24,6.24,0,0,0-1.53,4.53V377.6H1076V363.66a6.32,6.32,0,0,0-1.5-4.53,5.39,5.39,0,0,0-4.1-1.57,5.5,5.5,0,0,0-4.16,1.57,6.24,6.24,0,0,0-1.53,4.53V377.6h-6.38V352.37h6.38v3.05a8.54,8.54,0,0,1,3.16-2.51,10,10,0,0,1,4.26-.91,11,11,0,0,1,5.29,1.25,8.84,8.84,0,0,1,3.59,3.58,9.16,9.16,0,0,1,3.58-3.51,10.93,10.93,0,0,1,12.57,1.53Z"/><path d="M1129.32,366.9h-18.45a6.24,6.24,0,0,0,1.92,4.28,5.88,5.88,0,0,0,4.14,1.54,5.21,5.21,0,0,0,5.06-3.05h6.87a11.45,11.45,0,0,1-4.19,6,12.18,12.18,0,0,1-7.6,2.35,13.16,13.16,0,0,1-6.54-1.62,11.36,11.36,0,0,1-4.51-4.58,14,14,0,0,1-1.62-6.83,14.28,14.28,0,0,1,1.6-6.87,11.08,11.08,0,0,1,4.46-4.56,14.39,14.39,0,0,1,13-.05,11,11,0,0,1,4.42,4.4,13.29,13.29,0,0,1,1.57,6.54A15.25,15.25,0,0,1,1129.32,366.9Zm-6.42-4.29a5.08,5.08,0,0,0-1.78-3.94,6.33,6.33,0,0,0-4.24-1.48,5.76,5.76,0,0,0-4,1.44,6.25,6.25,0,0,0-2,4Z"/><path d="M1155.42,354.85q2.77,2.85,2.77,7.95v14.8h-6.37V363.66a6.51,6.51,0,0,0-1.51-4.62,5.3,5.3,0,0,0-4.09-1.62,5.43,5.43,0,0,0-4.17,1.62,6.47,6.47,0,0,0-1.53,4.62V377.6h-6.37V352.37h6.37v3.14a8.82,8.82,0,0,1,3.26-2.57,10,10,0,0,1,4.35-.94A9.75,9.75,0,0,1,1155.42,354.85Z"/><path d="M1171.67,357.6v12.21a2.39,2.39,0,0,0,.62,1.84,3,3,0,0,0,2.07.57h3v5.38h-4q-8.05,0-8.06-7.83V357.6h-3v-5.23h3v-6.24h6.42v6.24h5.65v5.23Z"/><path d="M1181.81,358.11a10.9,10.9,0,0,1,10-6.15,10.27,10.27,0,0,1,4.94,1.14,10,10,0,0,1,3.39,2.86v-3.59h6.42V377.6h-6.42v-3.69a9.6,9.6,0,0,1-3.39,2.94,10.47,10.47,0,0,1-5,1.16,10.76,10.76,0,0,1-5.81-1.64,11.56,11.56,0,0,1-4.14-4.62,14.84,14.84,0,0,1-1.53-6.86A14.54,14.54,0,0,1,1181.81,358.11Zm17.42,2.89a6.53,6.53,0,0,0-5.78-3.44,6.39,6.39,0,0,0-5.72,3.39,8,8,0,0,0-.94,3.94,8.23,8.23,0,0,0,.94,4,6.7,6.7,0,0,0,2.46,2.62,6.32,6.32,0,0,0,3.26.91,6.58,6.58,0,0,0,3.32-.89,6.43,6.43,0,0,0,2.46-2.55,9.18,9.18,0,0,0,0-8Z"/><path d="M1219.18,343.9v33.7h-6.38V343.9Z"/></g></svg>